<?xml version="1.0" standalone="no"?>
<!DOCTYPE svg PUBLIC "-//W3C//DTD SVG 1.1//EN"
  "http://www.w3.org/Graphics/SVG/1.1/DTD/svg11.dtd">
<svg xmlns="http://www.w3.org/2000/svg" version="1.1" class="railroad-diagram" width="337" height="102" viewBox="0 0 337 102">
<defs><style type="text/css"><![CDATA[ svg.railroad-diagram {
  background-color: hsl(30,20%,95%);
}
svg.railroad-diagram path {
  stroke-width: 3;
  stroke: black;
  fill: none;
}
svg.railroad-diagram text {
  font: bold 14px monospace;
  text-anchor: middle;
  cursor: pointer;
}
svg.railroad-diagram text.label {
  text-anchor: start;
}
svg.railroad-diagram text.comment {
  font: italic 12px monospace;
}
svg.railroad-diagram rect {
  stroke-width: 3;
  stroke: black;
  fill: hsl(120,100%,90%);
}
 ]]></style></defs>
<g transform="translate(.5 .5)">
<path d="M 20 31 v 20 m 10 -20 v 20 m -10 -10 h 20.5"></path>
<g>
<path d="M40 41h0"></path>
<path d="M296 41h0"></path>
<path d="M40 41h10"></path>
<g>
<path d="M50 41h0"></path>
<path d="M78 41h0"></path>
<rect x="50" y="30" width="28" height="22" rx="10" ry="10"></rect>
<text x="64" y="45">&#91;</text>
</g>
<path d="M78 41h10"></path>
<g>
<path d="M88 41h0"></path>
<path d="M248 41h0"></path>
<path d="M88 41a10 10 0 0 0 10 -10v0a10 10 0 0 1 10 -10"></path>
<g>
<path d="M108 21h120"></path>
</g>
<path d="M228 21a10 10 0 0 1 10 10v0a10 10 0 0 0 10 10"></path>
<path d="M88 41h20"></path>
<g>
<path d="M108 41h0"></path>
<path d="M228 41h0"></path>
<path d="M108 41h10"></path>
<g>
<path d="M118 41h0"></path>
<path d="M218 41h0"></path>
<path d="M118 41h10"></path>
<g>
<path d="M128 41h0"></path>
<path d="M208 41h0"></path>
<path d="M128 41h10"></path>
<g>
<path d="M138 41h0"></path>
<path d="M198 41h0"></path>
<rect x="138" y="30" width="60" height="22"></rect>
<text x="168" y="45">value</text>
</g>
<path d="M198 41h10"></path>
</g>
<path d="M208 41h10"></path>
<path d="M128 41a10 10 0 0 0 -10 10v10a10 10 0 0 0 10 10"></path>
<g>
<path d="M128 71h16"></path>
<path d="M192 71h16"></path>
<path d="M144 71h10"></path>
<g>
<path d="M154 71h0"></path>
<path d="M182 71h0"></path>
<rect x="154" y="60" width="28" height="22" rx="10" ry="10"></rect>
<text x="168" y="75">,</text>
</g>
<path d="M182 71h10"></path>
</g>
<path d="M208 71a10 10 0 0 0 10 -10v-10a10 10 0 0 0 -10 -10"></path>
</g>
<path d="M218 41h10"></path>
</g>
<path d="M228 41h20"></path>
</g>
<path d="M248 41h10"></path>
<g>
<path d="M258 41h0"></path>
<path d="M286 41h0"></path>
<rect x="258" y="30" width="28" height="22" rx="10" ry="10"></rect>
<text x="272" y="45">&#93;</text>
</g>
<path d="M286 41h10"></path>
</g>
<path d="M 296 41 h 20 m -10 -10 v 20 m 10 -20 v 20"></path>
</g>
</svg>
