<?xml version="1.0" standalone="no"?>
<!DOCTYPE svg PUBLIC "-//W3C//DTD SVG 1.1//EN"
  "http://www.w3.org/Graphics/SVG/1.1/DTD/svg11.dtd">
<svg xmlns="http://www.w3.org/2000/svg" version="1.1" class="railroad-diagram" width="381" height="152" viewBox="0 0 381 152">
<defs><style type="text/css"><![CDATA[ svg.railroad-diagram {
  background-color: hsl(30,20%,95%);
}
svg.railroad-diagram path {
  stroke-width: 3;
  stroke: black;
  fill: none;
}
svg.railroad-diagram text {
  font: bold 14px monospace;
  text-anchor: middle;
  cursor: pointer;
}
svg.railroad-diagram text.label {
  text-anchor: start;
}
svg.railroad-diagram text.comment {
  font: italic 12px monospace;
}
svg.railroad-diagram rect {
  stroke-width: 3;
  stroke: black;
  fill: hsl(120,100%,90%);
}
 ]]></style></defs>
<g transform="translate(.5 .5)">
<path d="M 20 21 v 20 m 10 -20 v 20 m -10 -10 h 20.5"></path>
<g>
<path d="M40 31h0"></path>
<path d="M340 31h0"></path>
<path d="M40 31h10"></path>
<g>
<path d="M50 31h0"></path>
<path d="M94 31h0"></path>
<rect x="50" y="20" width="44" height="22" rx="10" ry="10"></rect>
<text x="72" y="35">u00</text>
</g>
<path d="M94 31h10"></path>
<g>
<path d="M104 31h0"></path>
<path d="M340 31h0"></path>
<path d="M104 31h20"></path>
<g>
<path d="M124 31h0"></path>
<path d="M320 31h0"></path>
<path d="M124 31h10"></path>
<g>
<path d="M134 31h0"></path>
<path d="M162 31h0"></path>
<rect x="134" y="20" width="28" height="22" rx="10" ry="10"></rect>
<text x="148" y="35">0</text>
</g>
<path d="M162 31h10"></path>
<g>
<path d="M172 31h0"></path>
<path d="M320 31h0"></path>
<path d="M172 31h20"></path>
<g>
<path d="M192 31h0"></path>
<path d="M300 31h0"></path>
<rect x="192" y="20" width="108" height="22" rx="10" ry="10"></rect>
<text x="246" y="35">&#91;#x0 - #x7&#93;</text>
</g>
<path d="M300 31h20"></path>
<path d="M172 31a10 10 0 0 1 10 10v10a10 10 0 0 0 10 10"></path>
<g>
<path d="M192 61h32"></path>
<path d="M268 61h32"></path>
<rect x="224" y="50" width="44" height="22" rx="10" ry="10"></rect>
<text x="246" y="65">#xB</text>
</g>
<path d="M300 61a10 10 0 0 0 10 -10v-10a10 10 0 0 1 10 -10"></path>
<path d="M172 31a10 10 0 0 1 10 10v40a10 10 0 0 0 10 10"></path>
<g>
<path d="M192 91h0"></path>
<path d="M300 91h0"></path>
<rect x="192" y="80" width="108" height="22" rx="10" ry="10"></rect>
<text x="246" y="95">&#91;#xE - #xF&#93;</text>
</g>
<path d="M300 91a10 10 0 0 0 10 -10v-40a10 10 0 0 1 10 -10"></path>
</g>
</g>
<path d="M320 31h20"></path>
<path d="M104 31a10 10 0 0 1 10 10v70a10 10 0 0 0 10 10"></path>
<g>
<path d="M124 121h36"></path>
<path d="M284 121h36"></path>
<rect x="160" y="110" width="124" height="22" rx="10" ry="10"></rect>
<text x="222" y="125">&#91;#x10 - #x1F&#93;</text>
</g>
<path d="M320 121a10 10 0 0 0 10 -10v-70a10 10 0 0 1 10 -10"></path>
</g>
</g>
<path d="M 340 31 h 20 m -10 -10 v 20 m 10 -20 v 20"></path>
</g>
</svg>
