<?xml version="1.0" standalone="no"?>
<!DOCTYPE svg PUBLIC "-//W3C//DTD SVG 1.1//EN"
  "http://www.w3.org/Graphics/SVG/1.1/DTD/svg11.dtd">
<svg xmlns="http://www.w3.org/2000/svg" version="1.1" class="railroad-diagram" width="149" height="242" viewBox="0 0 149 242">
<defs><style type="text/css"><![CDATA[ svg.railroad-diagram {
  background-color: hsl(30,20%,95%);
}
svg.railroad-diagram path {
  stroke-width: 3;
  stroke: black;
  fill: none;
}
svg.railroad-diagram text {
  font: bold 14px monospace;
  text-anchor: middle;
  cursor: pointer;
}
svg.railroad-diagram text.label {
  text-anchor: start;
}
svg.railroad-diagram text.comment {
  font: italic 12px monospace;
}
svg.railroad-diagram rect {
  stroke-width: 3;
  stroke: black;
  fill: hsl(120,100%,90%);
}
 ]]></style></defs>
<g transform="translate(.5 .5)">
<path d="M 20 21 v 20 m 10 -20 v 20 m -10 -10 h 20.5"></path>
<g>
<path d="M40 31h0"></path>
<path d="M108 31h0"></path>
<path d="M40 31h20"></path>
<g>
<path d="M60 31h0"></path>
<path d="M88 31h0"></path>
<rect x="60" y="20" width="28" height="22" rx="10" ry="10"></rect>
<text x="74" y="35">"</text>
</g>
<path d="M88 31h20"></path>
<path d="M40 31a10 10 0 0 1 10 10v10a10 10 0 0 0 10 10"></path>
<g>
<path d="M60 61h0"></path>
<path d="M88 61h0"></path>
<rect x="60" y="50" width="28" height="22" rx="10" ry="10"></rect>
<text x="74" y="65">\</text>
</g>
<path d="M88 61a10 10 0 0 0 10 -10v-10a10 10 0 0 1 10 -10"></path>
<path d="M40 31a10 10 0 0 1 10 10v40a10 10 0 0 0 10 10"></path>
<g>
<path d="M60 91h0"></path>
<path d="M88 91h0"></path>
<rect x="60" y="80" width="28" height="22" rx="10" ry="10"></rect>
<text x="74" y="95">b</text>
</g>
<path d="M88 91a10 10 0 0 0 10 -10v-40a10 10 0 0 1 10 -10"></path>
<path d="M40 31a10 10 0 0 1 10 10v70a10 10 0 0 0 10 10"></path>
<g>
<path d="M60 121h0"></path>
<path d="M88 121h0"></path>
<rect x="60" y="110" width="28" height="22" rx="10" ry="10"></rect>
<text x="74" y="125">t</text>
</g>
<path d="M88 121a10 10 0 0 0 10 -10v-70a10 10 0 0 1 10 -10"></path>
<path d="M40 31a10 10 0 0 1 10 10v100a10 10 0 0 0 10 10"></path>
<g>
<path d="M60 151h0"></path>
<path d="M88 151h0"></path>
<rect x="60" y="140" width="28" height="22" rx="10" ry="10"></rect>
<text x="74" y="155">n</text>
</g>
<path d="M88 151a10 10 0 0 0 10 -10v-100a10 10 0 0 1 10 -10"></path>
<path d="M40 31a10 10 0 0 1 10 10v130a10 10 0 0 0 10 10"></path>
<g>
<path d="M60 181h0"></path>
<path d="M88 181h0"></path>
<rect x="60" y="170" width="28" height="22" rx="10" ry="10"></rect>
<text x="74" y="185">f</text>
</g>
<path d="M88 181a10 10 0 0 0 10 -10v-130a10 10 0 0 1 10 -10"></path>
<path d="M40 31a10 10 0 0 1 10 10v160a10 10 0 0 0 10 10"></path>
<g>
<path d="M60 211h0"></path>
<path d="M88 211h0"></path>
<rect x="60" y="200" width="28" height="22" rx="10" ry="10"></rect>
<text x="74" y="215">r</text>
</g>
<path d="M88 211a10 10 0 0 0 10 -10v-160a10 10 0 0 1 10 -10"></path>
</g>
<path d="M 108 31 h 20 m -10 -10 v 20 m 10 -20 v 20"></path>
</g>
</svg>
