<?xml version="1.0" standalone="no"?>
<!DOCTYPE svg PUBLIC "-//W3C//DTD SVG 1.1//EN"
  "http://www.w3.org/Graphics/SVG/1.1/DTD/svg11.dtd">
<svg xmlns="http://www.w3.org/2000/svg" version="1.1" class="railroad-diagram" width="505" height="140" viewBox="0 0 505 140">
<defs><style type="text/css"><![CDATA[ svg.railroad-diagram {
  background-color: hsl(30,20%,95%);
}
svg.railroad-diagram path {
  stroke-width: 3;
  stroke: black;
  fill: none;
}
svg.railroad-diagram text {
  font: bold 14px monospace;
  text-anchor: middle;
  cursor: pointer;
}
svg.railroad-diagram text.label {
  text-anchor: start;
}
svg.railroad-diagram text.comment {
  font: italic 12px monospace;
}
svg.railroad-diagram rect {
  stroke-width: 3;
  stroke: black;
  fill: hsl(120,100%,90%);
}
 ]]></style></defs>
<g transform="translate(.5 .5)">
<path d="M 20 31 v 20 m 10 -20 v 20 m -10 -10 h 20.5"></path>
<g>
<path d="M40 41h0"></path>
<path d="M464 41h0"></path>
<path d="M40 41h10"></path>
<g>
<path d="M50 41h0"></path>
<path d="M78 41h0"></path>
<rect x="50" y="30" width="28" height="22" rx="10" ry="10"></rect>
<text x="64" y="45">"</text>
</g>
<path d="M78 41h10"></path>
<g>
<path d="M88 41h0"></path>
<path d="M416 41h0"></path>
<path d="M88 41a10 10 0 0 0 10 -10v0a10 10 0 0 1 10 -10"></path>
<g>
<path d="M108 21h288"></path>
</g>
<path d="M396 21a10 10 0 0 1 10 10v0a10 10 0 0 0 10 10"></path>
<path d="M88 41h20"></path>
<g>
<path d="M108 41h0"></path>
<path d="M396 41h0"></path>
<path d="M108 41h10"></path>
<g>
<path d="M118 41h0"></path>
<path d="M386 41h0"></path>
<path d="M118 41h20"></path>
<g>
<path d="M138 41h68"></path>
<path d="M298 41h68"></path>
<rect x="206" y="30" width="92" height="22"></rect>
<text x="252" y="45">unescaped</text>
</g>
<path d="M366 41h20"></path>
<path d="M118 41a10 10 0 0 1 10 10v10a10 10 0 0 0 10 10"></path>
<g>
<path d="M138 71h0"></path>
<path d="M366 71h0"></path>
<path d="M138 71h10"></path>
<g>
<path d="M148 71h0"></path>
<path d="M176 71h0"></path>
<rect x="148" y="60" width="28" height="22" rx="10" ry="10"></rect>
<text x="162" y="75">\</text>
</g>
<path d="M176 71h10"></path>
<g>
<path d="M186 71h0"></path>
<path d="M366 71h0"></path>
<path d="M186 71h20"></path>
<g>
<path d="M206 71h4"></path>
<path d="M342 71h4"></path>
<rect x="210" y="60" width="132" height="22"></rect>
<text x="276" y="75">shortcutEscape</text>
</g>
<path d="M346 71h20"></path>
<path d="M186 71a10 10 0 0 1 10 10v10a10 10 0 0 0 10 10"></path>
<g>
<path d="M206 101h0"></path>
<path d="M346 101h0"></path>
<rect x="206" y="90" width="140" height="22"></rect>
<text x="276" y="105">codepointEscape</text>
</g>
<path d="M346 101a10 10 0 0 0 10 -10v-10a10 10 0 0 1 10 -10"></path>
</g>
</g>
<path d="M366 71a10 10 0 0 0 10 -10v-10a10 10 0 0 1 10 -10"></path>
</g>
<path d="M386 41h10"></path>
<path d="M118 41a10 10 0 0 0 -10 10v59a10 10 0 0 0 10 10"></path>
<g>
<path d="M118 120h268"></path>
</g>
<path d="M386 120a10 10 0 0 0 10 -10v-59a10 10 0 0 0 -10 -10"></path>
</g>
<path d="M396 41h20"></path>
</g>
<path d="M416 41h10"></path>
<g>
<path d="M426 41h0"></path>
<path d="M454 41h0"></path>
<rect x="426" y="30" width="28" height="22" rx="10" ry="10"></rect>
<text x="440" y="45">"</text>
</g>
<path d="M454 41h10"></path>
</g>
<path d="M 464 41 h 20 m -10 -10 v 20 m 10 -20 v 20"></path>
</g>
</svg>
